<?xml version="1.0" standalone="no"?>
<!DOCTYPE svg PUBLIC "-//W3C//DTD SVG 20010904//EN"
 "http://www.w3.org/TR/2001/REC-SVG-20010904/DTD/svg10.dtd">
<svg version="1.0" xmlns="http://www.w3.org/2000/svg"
 width="135.000000pt" height="113.000000pt" viewBox="0 0 135.000000 113.000000"
 preserveAspectRatio="xMidYMid meet">

<g transform="translate(0.000000,113.000000) scale(0.100000,-0.100000)"
fill="#000000" stroke="none">
<path style="fill:#000000;" d="M144 1016 c-36 -16 -44 -32 -44 -87 0 -77 64 -182 191 -313 43 -44
79 -84 79 -87 0 -3 -18 -20 -40 -37 -51 -42 -126 -148 -147 -207 -18 -55 -14
-120 12 -158 9 -15 42 -39 73 -54 53 -26 65 -28 177 -27 128 1 224 23 350 79
69 30 72 30 80 5 8 -26 27 -25 43 1 14 21 14 21 46 -10 33 -32 73 -35 62 -4
-4 8 -9 25 -12 38 -5 22 -4 23 34 18 49 -7 107 12 127 40 18 26 18 79 1 127
-12 33 -11 37 22 80 50 65 72 118 72 176 0 65 -29 111 -90 141 -56 27 -110 39
-110 24 0 -6 10 -11 23 -11 37 0 101 -43 120 -80 23 -45 16 -105 -19 -170 -28
-52 -130 -158 -182 -192 l-31 -20 -69 46 c-86 58 -97 59 -88 6 3 -22 3 -40 -1
-40 -13 0 -156 80 -190 106 -24 18 -33 33 -33 54 0 38 -44 90 -77 90 -13 0
-33 -5 -44 -11 -18 -9 -34 4 -137 108 -81 81 -128 137 -150 179 -39 75 -42
126 -10 148 46 32 195 9 225 -34 11 -16 22 -20 39 -16 15 4 47 -6 98 -33 42
-22 76 -35 76 -31 0 10 -96 70 -111 70 -6 0 -26 16 -45 37 -26 29 -36 34 -47
25 -11 -9 -28 -7 -73 8 -79 28 -161 34 -200 16z m300 -570 c4 -18 17 -43 31
-56 20 -19 32 -22 67 -17 39 5 53 -1 168 -67 69 -40 125 -79 125 -86 0 -17
-34 -35 -126 -66 -171 -58 -340 -52 -411 14 -74 69 -54 174 55 289 46 49 51
52 68 37 9 -8 20 -30 23 -48z m710 -118 c13 -51 7 -77 -24 -93 -40 -21 -67
-19 -80 5 -10 18 -5 27 37 65 26 24 51 44 54 45 4 0 9 -10 13 -22z"/>
<path style="fill:#000000;" d="M655 624 c-10 -25 -19 -62 -20 -83 -1 -37 14 -81 28 -81 4 0 7 -9 7
-20 0 -15 7 -20 29 -20 39 0 61 9 61 26 0 8 5 14 10 14 6 0 10 9 10 20 0 13
-7 20 -20 20 -13 0 -20 -7 -20 -20 0 -14 -7 -20 -23 -20 -37 0 -54 79 -32 148
8 26 55 32 55 7 0 -8 9 -15 20 -15 23 0 27 25 5 34 -8 3 -14 11 -13 18 2 9
-11 14 -37 16 -40 3 -41 2 -60 -44z"/>
<path style="fill:#000000;" d="M834 657 c-2 -7 -3 -62 -2 -123 l3 -109 55 0 c44 1 56 4 58 18 3 14
-4 17 -37 17 l-41 0 0 105 c0 88 -3 105 -15 105 -9 0 -18 -6 -21 -13z"/>
</g>
</svg>
